<svg width="1024" height="1024" viewBox="0 0 1024 1024" fill="none" xmlns="http://www.w3.org/2000/svg">
<path fill-rule="evenodd" clip-rule="evenodd" d="M114.813 21.0584C119.684 21.3289 125.366 22.4112 127.666 23.3581C129.966 24.3051 134.296 26.8754 143.225 32.6924L152.425 29.8516C157.431 28.3635 166.361 26.7401 172.314 26.3343C179.62 25.7932 185.437 26.0637 189.902 27.2812C195.179 28.7693 198.561 30.9338 204.92 37.2919C210.873 43.3795 213.714 47.4379 215.338 52.308C216.555 55.9605 217.908 61.7775 218.314 65.1595C218.855 68.5415 218.585 74.6291 217.773 78.6875C216.961 82.7459 214.12 89.7804 211.414 94.2446C207.085 101.55 206.814 102.632 208.438 105.743C209.385 107.637 210.738 109.531 211.549 110.072C212.226 110.613 218.179 111.155 224.808 111.155C231.303 111.155 245.238 109.667 255.791 107.908C266.479 106.014 278.521 104.391 290.021 103.714L290.697 188.264L285.691 189.617C282.85 190.293 277.168 191.24 273.109 191.781C267.156 192.458 261.879 191.646 246.726 187.858C236.309 185.153 223.591 182.853 208.844 182.176L208.438 190.97C208.167 195.84 207.22 200.169 206.408 200.71C205.461 201.251 202.214 201.792 199.102 201.792C195.855 201.792 193.285 202.198 193.285 202.739C193.285 203.415 194.637 207.203 196.396 211.261C198.29 215.32 203.432 228.713 208.167 241.023C212.767 253.333 219.261 268.485 222.508 274.843C225.755 281.201 234.414 294.323 241.72 303.928C249.026 313.533 263.097 331.255 273.109 343.294C283.121 355.199 296.921 372.244 303.686 381.173C310.451 389.966 319.651 402.817 323.98 409.446C328.445 416.075 334.939 426.491 338.322 432.444C341.569 438.396 346.304 446.919 348.604 451.383C352.663 459.229 353.204 459.5 359.969 461.123C363.892 461.935 370.792 464.37 375.257 466.534C379.722 468.563 386.893 473.704 391.357 477.762C396.093 482.091 400.693 488.044 402.452 491.967C404.211 495.619 405.699 500.76 405.699 503.06C405.699 506.847 407.322 509.012 415.169 516.588C421.258 522.54 424.911 527.275 425.587 530.116C426.534 534.174 427.211 534.58 433.434 535.391C437.223 535.797 444.123 537.15 448.993 538.232C453.864 539.315 461.441 542.02 465.905 544.32C470.37 546.484 477.676 550.949 482.141 554.195C486.606 557.442 491.341 560.418 492.694 560.824C494.723 561.5 494.994 560.418 494.994 547.702C494.994 539.585 495.806 530.792 497.023 526.463C498.106 522.405 500.135 514.829 503.788 500.354L500.541 498.19C498.647 496.972 494.588 493.455 491.341 490.208C487.959 486.826 484.982 482.497 484.17 479.386C483.358 476.68 482.411 470.187 480.788 455.847L473.347 456.659C469.288 457.2 458.599 459.094 449.67 460.852C440.74 462.611 431.27 464.234 428.699 464.505C425.452 464.775 423.964 464.37 423.693 462.882C423.422 461.529 430.593 457.065 447.099 448.677C460.223 442.048 472.4 435.42 474.158 434.067C477.405 431.767 477.405 431.767 472.67 422.162L459.141 422.839C451.699 423.245 429.781 424.056 410.434 424.462C378.91 425.274 375.122 425.139 374.31 423.109C373.634 421.892 373.498 420.404 373.904 419.592C374.31 418.78 375.663 418.239 377.016 418.239C378.234 418.239 398.528 414.451 421.934 409.987C445.34 405.388 465.094 401.329 465.635 400.788C466.176 400.382 465.905 395.918 463.199 381.849L455.758 380.902C451.699 380.496 438.576 379.008 426.67 377.52C414.764 376.032 393.116 373.056 378.64 370.756C364.163 368.592 352.122 366.833 351.986 366.833C351.716 366.833 351.58 365.751 351.58 364.398C351.58 362.369 353.745 361.963 370.116 361.016C380.398 360.475 400.693 360.069 415.169 360.069C429.646 360.069 447.235 359.663 466.852 358.04L470.911 349.923C473.076 345.459 475.511 341.265 476.188 340.454C476.864 339.642 477.405 338.56 477.541 337.748C477.541 336.936 470.37 330.984 461.576 324.355C452.782 317.727 431.946 301.493 415.305 288.506C398.663 275.384 384.863 264.291 384.593 263.615C384.322 263.074 384.863 262.262 385.81 261.856C386.622 261.45 394.74 264.967 403.669 269.838C412.599 274.572 436.681 287.424 457.111 298.246C477.541 309.204 494.859 318.132 495.67 318.132C496.482 318.132 499.729 316.78 503.112 314.886C506.494 313.127 511.5 310.963 514.341 310.151C517.047 309.339 519.347 308.122 519.347 307.31C519.347 306.498 514.882 289.994 509.335 270.379C503.788 250.898 497.023 226.683 494.453 216.673C491.747 206.662 489.582 198.004 489.582 197.328C489.582 196.787 490.8 196.516 492.288 196.651C494.453 196.922 500.812 208.421 521.106 248.463C535.312 276.737 547.759 300.952 548.436 302.034C549.518 303.793 552.765 304.334 577.66 305.281L588.889 278.225C594.977 263.344 604.854 239.129 610.807 224.384C616.76 209.503 622.307 197.734 623.254 197.734C624.066 197.734 624.878 199.086 624.878 200.71C624.878 202.468 620.954 226.007 616.219 253.198C611.348 280.389 606.748 305.687 605.936 309.339C605.26 312.992 604.719 316.238 604.854 316.238C605.125 316.374 607.966 317.862 611.348 319.485C614.731 321.109 619.06 323.679 624.878 327.602L636.784 318.538C643.278 313.533 658.566 301.358 670.878 291.618C683.19 281.742 698.208 269.702 704.432 264.832C710.52 259.962 716.202 255.904 716.879 255.904C717.555 255.904 718.096 256.715 717.961 257.798C717.691 258.88 712.955 265.103 707.408 271.596C701.861 278.09 691.173 290.265 683.731 298.652C676.29 306.904 664.113 320.297 643.143 342.618L653.966 353.305L681.702 341.942C696.99 335.719 721.479 325.437 736.226 318.944C750.838 312.586 763.556 307.581 764.232 307.986C764.909 308.392 765.585 309.204 765.585 310.016C765.585 310.827 755.438 318.132 742.991 326.52C730.408 334.772 709.032 348.841 695.232 357.769C681.431 366.562 670.066 374.003 669.931 374.138C669.796 374.138 671.284 377.791 673.314 381.984C676.29 388.343 677.508 389.695 679.673 389.154C681.161 388.748 688.737 387.531 696.584 386.449C704.432 385.366 723.644 382.931 739.203 381.037C754.762 379.008 770.185 376.979 773.432 376.573C776.544 376.032 779.521 375.897 779.927 376.303C780.197 376.708 780.468 377.926 780.468 379.008C780.468 380.361 777.762 381.849 772.756 383.202C768.426 384.419 754.626 388.613 741.909 392.536C729.191 396.459 711.332 401.87 685.084 409.852L684.408 456.118L689.955 467.211C693.067 473.433 697.667 484.256 700.237 491.29C702.808 498.325 706.326 509.418 708.22 515.911C709.979 522.54 711.467 529.169 711.467 530.792C711.332 532.551 709.302 537.285 706.867 541.344C704.432 545.402 701.726 550.002 700.914 551.49C699.832 553.519 700.102 555.683 702.132 560.283C703.62 563.665 707.679 571.105 717.555 587.204L725.673 588.15C730.138 588.556 737.985 590.044 743.261 591.397C748.538 592.75 756.115 595.456 760.173 597.485C764.232 599.514 770.321 603.437 773.703 606.278C777.085 608.984 781.685 614.936 784.121 619.265C787.097 624.946 790.209 628.464 794.944 631.575C798.462 633.875 805.903 639.692 811.451 644.427C816.998 649.162 826.062 658.361 831.61 665.125C837.292 671.889 845.816 683.387 850.686 690.828C855.422 698.268 861.916 707.602 864.892 711.525C868.004 715.449 870.845 718.154 871.386 717.613C871.928 717.072 880.045 700.974 889.381 682.034C898.851 663.095 907.646 646.05 911.434 640.774L949.723 639.421C970.829 638.745 990.853 638.204 994.235 638.204C998.159 638.339 1003.3 639.827 1008.85 642.533C1013.45 644.968 1018.72 648.35 1020.62 650.244C1022.51 652.138 1024 655.114 1024 657.008C1024 658.902 1020.89 666.613 1017.1 674.188C1010.34 687.987 1010.2 688.257 1011.96 694.21C1013.04 698.403 1013.31 704.762 1012.77 714.502C1012.23 722.348 1009.79 750.351 1007.09 776.73C1004.38 804.868 1001.54 827.325 1000.32 830.842C999.106 834.224 996.67 839.365 994.911 842.341C993.288 845.317 988.823 850.728 985.17 854.381C981.652 858.033 977.323 861.821 975.699 862.768C972.723 864.527 972.588 865.474 972.588 882.519C972.588 892.394 971.911 905.922 971.099 912.686C970.288 919.45 968.123 930.002 966.364 936.36C964.47 942.718 959.735 954.623 955.676 962.74C951.482 970.856 944.987 981.544 941.064 986.414C937.275 991.148 931.052 996.965 920.769 1003.32L382.698 1004L378.234 1000.21C375.663 997.912 373.228 993.854 372.145 990.337C370.792 985.737 370.522 973.968 370.928 938.389C371.334 897.941 371.875 890.906 374.31 880.219C375.798 873.455 379.181 861.009 386.487 836.93L377.016 826.784C370.792 820.02 367.139 814.879 366.192 811.227C364.975 807.168 365.11 804.192 366.192 799.322C367.139 795.805 367.816 790.664 367.816 787.823C367.816 784.712 366.734 781.465 364.704 779.03C362.675 776.46 359.157 774.701 352.933 772.942C348.063 771.725 342.516 769.56 340.351 768.208C338.322 766.99 335.074 763.608 333.18 760.767C330.474 756.844 329.663 753.868 329.527 746.969C329.392 742.099 329.798 735.064 331.421 724.648L316.133 723.971C302.603 723.43 300.168 722.889 294.35 719.507C290.833 717.478 286.233 713.284 284.068 710.037C281.903 706.926 279.197 701.244 277.844 697.592C276.221 692.857 275.274 685.011 274.733 671.889C274.462 661.472 274.868 641.045 275.68 626.57C276.627 612.095 278.25 593.156 279.197 584.633C280.28 576.111 282.174 563.665 285.691 544.726L279.603 533.227C276.221 526.869 266.209 511.041 257.415 498.054C248.62 485.067 235.767 465.858 228.867 455.441C221.832 445.025 212.632 429.467 208.302 420.945C203.838 412.422 194.908 392.266 188.143 376.303C181.514 360.34 174.073 343.024 171.773 337.748C169.337 332.472 167.172 328.143 166.767 327.873C166.496 327.737 163.925 330.172 161.084 333.284C158.378 336.26 154.049 339.642 151.613 340.724C149.313 341.671 145.119 342.483 142.549 342.483C139.978 342.483 136.19 341.671 134.025 340.589C131.996 339.507 128.748 336.936 126.719 334.772C124.69 332.743 121.848 328.278 120.36 324.896C118.872 321.514 116.707 313.262 115.49 306.634C114.272 299.464 112.513 293.512 111.025 292.023C109.807 290.671 108.184 289.724 107.372 289.724C106.56 289.859 103.448 287.018 100.201 283.636C96.6834 279.848 93.9775 275.384 93.0304 271.731C92.2186 268.62 91.948 264.426 92.3539 262.262C92.8951 259.692 92.2186 256.851 89.7833 252.792C87.7539 249.41 86.4009 244.946 86.4009 241.699C86.4009 238.723 87.0774 235.747 87.8892 234.935C88.9716 233.988 88.5657 231.689 86.2656 226.548C84.5068 222.625 82.0715 219.243 80.9891 218.837C79.9067 218.431 64.6183 215.996 47.1652 213.291C29.7121 210.585 14.0178 208.015 12.3942 207.474C10.6354 206.933 9.2824 205.986 9.2824 205.174C9.14711 204.362 17.2648 201.927 27.1414 199.627C37.018 197.192 56.9065 192.728 97.2246 183.529V147.004C97.2246 126.847 96.6834 109.802 96.1422 108.99C95.601 108.178 93.0304 106.42 90.4598 105.067C87.7539 103.714 79.9067 102.091 72.1949 101.414C64.7536 100.603 56.23 99.6558 53.2535 99.25C48.3829 98.4383 47.8417 97.7619 46.0828 92.2155C44.8652 88.1571 44.4593 81.6636 44.8652 73.2763C45.2711 62.7245 45.9475 59.072 49.0593 52.9844C51.0888 48.926 55.2829 42.9737 58.3947 39.8623C61.6418 36.4803 68.0007 32.2866 73.5479 29.7163C78.6891 27.4165 88.1598 24.4404 94.5187 22.9523C101.689 21.4642 109.401 20.7878 114.813 21.0584ZM65.4301 105.608L72.8714 106.42C76.9302 106.826 82.3421 107.502 89.1068 108.449L88.4304 180.824L81.6656 182.312C77.8773 183.259 72.7361 184.07 65.4301 184.206L64.3477 164.996C63.8066 154.309 63.8066 136.587 64.3477 125.63L65.4301 105.608ZM6.03532 117.377C7.11768 117.648 8.33534 119.136 8.74123 120.624C9.01182 122.112 10.0942 123.33 11.0413 123.33C11.9883 123.33 16.5884 122.112 21.3237 120.489C26.7355 118.866 31.7415 118.054 34.5827 118.46C37.018 119.001 41.3475 121.301 43.9181 123.736C46.624 126.171 49.6005 130.635 50.6829 134.152C51.7653 137.534 52.7123 143.622 52.7123 147.68C52.7123 151.738 51.7652 157.826 50.5476 161.208C49.4652 164.59 46.8946 169.325 45.1358 171.76C43.3769 174.06 39.5886 177.712 36.7474 179.606C32.5533 182.447 30.6591 182.988 25.6532 182.312C22.2708 181.771 17.6707 180.418 11.1765 176.765L10.5001 183.529C10.0942 187.317 8.74122 191.916 7.52356 194.081C6.30589 196.11 4.68236 197.734 4.00588 197.734C3.19411 197.734 1.97644 195.434 1.16466 192.728C0.217593 189.481 -0.188298 175.142 0.0822932 154.309C0.48818 129.958 1.02937 120.489 2.24703 118.866C3.1941 117.648 4.95295 116.972 6.03532 117.377Z" fill="#222222"/>
<path fill-rule="evenodd" clip-rule="evenodd" d="M117.532 34.2099C120.508 34.6161 125.244 36.2406 128.085 37.8652C130.927 39.4897 135.121 43.5512 137.286 46.9357C139.586 50.3202 142.156 56.1416 143.374 59.7968C144.456 63.5875 145.268 67.5135 145.268 68.5966C145.268 69.6796 144.321 74.0118 143.103 78.0732C141.615 83.353 139.315 87.1437 135.256 90.9343C131.558 94.6348 127.589 97.0265 123.35 98.1095C118.614 99.3279 115.096 99.3279 110.496 98.3803C106.708 97.568 101.702 95.1311 98.7253 92.5589C95.7487 90.2574 91.9603 85.2484 90.2014 81.4577C88.0366 76.7194 87.0895 72.2518 87.0895 66.5659C87.0895 60.8799 88.0366 56.4123 90.3367 51.674C92.0956 48.0187 95.2075 43.2804 97.3723 41.1143C99.5371 39.0836 103.731 36.5114 106.708 35.4283C109.955 34.2099 114.285 33.6684 117.532 34.2099ZM181.123 37.459C185.046 37.3237 188.294 38.5421 193.3 41.7912C198.035 45.0403 201.012 48.2895 203.718 53.7047C206.694 59.5261 207.641 62.9106 207.506 69.2735C207.506 75.0948 206.559 78.8855 204.394 82.6761C202.771 85.6545 199.117 89.8513 196.276 92.1528C191.676 95.808 190.052 96.3496 182.476 96.3496C175.034 96.3496 173.275 95.808 168.675 92.1528C165.834 89.9867 161.91 84.7068 159.745 80.6454C157.31 75.7717 156.092 71.3042 156.092 67.2428C156.228 63.8582 156.904 58.9845 157.851 56.4123C158.798 53.7047 161.098 49.5079 162.993 46.9357C164.887 44.3634 168.54 41.1143 171.11 39.8959C173.681 38.5421 178.146 37.459 181.123 37.459ZM273.803 120.041V172.84H264.332L264.061 147.388C263.926 133.308 264.332 121.395 265.008 120.989C265.685 120.447 267.85 120.041 273.803 120.041ZM150.004 121.26L193.3 122.072L193.976 152.532H184.776C179.77 152.532 172.734 152.126 169.216 151.585C164.21 150.773 162.993 150.096 163.669 148.471C164.21 147.388 164.887 144.951 165.293 143.056C165.834 140.484 164.616 138.182 160.692 133.579C157.716 130.195 154.198 126.133 152.71 124.373L150.004 121.26ZM224.96 121.936C239.843 122.749 240.79 122.884 243.36 126.404C244.849 128.435 246.743 131.819 247.69 134.121C248.502 136.422 249.314 139.401 249.314 140.754C249.449 142.65 248.231 143.056 243.631 143.056C240.519 143.056 235.919 142.65 233.484 142.108C229.83 141.161 229.154 140.348 229.154 137.37C229.154 134.933 228.072 132.902 226.042 131.684C224.418 130.601 220.224 129.382 216.571 128.976C212.647 128.435 209.941 127.352 209.536 126.133C209.13 125.05 208.994 123.426 209.13 122.478C209.265 121.395 213.595 121.26 224.96 121.936ZM21.6046 156.594C22.2811 156.594 24.1752 158.895 25.7988 161.603C27.2871 164.446 29.9931 167.966 31.4814 169.455C33.105 170.944 34.3227 172.569 34.3227 173.246C34.3227 173.787 32.9697 174.193 31.2108 174.193C29.5872 174.193 26.8812 172.84 25.2576 171.215C23.634 169.455 21.8751 165.529 21.3339 162.415C20.7927 159.166 20.9281 156.594 21.6046 156.594ZM153.927 187.055C154.739 188.544 157.851 192.199 160.963 195.177C163.94 198.156 169.352 202.894 172.734 205.737C177.47 209.528 180.446 213.589 184.505 221.983C187.482 228.075 191.135 238.228 192.623 244.591C194.247 250.954 195.329 256.505 195.058 257.046C194.788 257.723 189.105 253.12 182.476 246.893C175.711 240.665 168.946 233.49 167.322 230.918C165.698 228.346 164.21 224.284 164.21 221.983C164.21 218.463 163.398 217.109 160.422 215.62C158.392 214.672 154.739 210.882 152.304 207.226C149.598 203.029 147.839 198.833 147.839 195.854C147.704 193.147 148.786 189.491 150.139 187.731C152.439 184.482 152.574 184.482 153.927 187.055ZM111.714 216.297C112.39 216.161 115.638 216.703 119.155 217.515C122.809 218.192 128.221 220.629 131.332 222.93C134.58 225.096 137.15 227.669 137.15 228.346C137.15 229.158 135.797 229.699 134.038 229.699C132.415 229.699 126.732 228.346 121.591 226.856C114.285 224.555 110.226 224.149 103.596 224.826C98.3194 225.367 95.2075 225.096 95.2075 224.284C95.2075 223.607 97.1017 221.983 99.2665 220.629C101.567 219.41 105.084 218.057 107.114 217.38C109.143 216.838 111.173 216.297 111.714 216.297ZM110.361 235.115C114.285 235.115 121.05 236.739 127.273 239.041C133.091 241.207 138.639 244.05 139.45 245.133C140.397 246.351 140.803 247.57 140.127 247.976C139.586 248.247 134.038 247.705 127.679 246.622C118.75 244.997 114.285 244.997 107.384 246.08C99.8077 247.299 98.3194 247.164 96.5605 245.404C95.0722 243.644 94.9369 242.561 96.0193 240.801C96.8311 239.582 98.9959 237.687 100.755 236.875C102.514 235.927 106.843 235.115 110.361 235.115ZM119.155 256.776C124.297 256.776 130.656 257.859 135.121 259.483C139.18 260.972 142.562 262.868 142.562 263.545C142.562 264.357 137.962 264.898 131.332 264.898C121.456 264.898 119.426 265.44 113.473 268.96C109.685 271.126 105.896 273.021 104.949 273.021C104.137 273.021 102.649 271.261 101.972 268.96C101.161 266.794 100.89 264.357 101.296 263.545C101.702 262.868 104.002 260.972 106.302 259.483C109.549 257.588 113.202 256.776 119.155 256.776ZM536.013 323.112H539.802C543.455 323.112 543.725 323.518 543.996 329.61C544.267 333.13 544.402 338.681 544.402 342.065C544.402 345.45 544.672 349.511 545.078 351.271C545.619 353.843 546.567 354.25 551.843 354.25C557.796 354.25 557.932 354.249 558.473 349.24C558.879 346.397 559.42 339.358 559.826 333.672C560.638 323.247 560.638 323.112 568.079 323.112L566.185 354.926L571.191 356.822C573.897 357.905 577.009 358.852 577.821 359.123C578.993 359.484 579.58 358.085 579.58 354.926C579.58 352.354 580.256 346.939 580.933 343.148C581.744 339.222 582.692 334.619 582.962 332.995C583.368 330.964 584.586 329.881 586.345 329.881C588.509 329.881 589.051 330.829 588.915 334.349C588.915 336.65 587.833 343.69 584.315 361.154L590.404 364.674C593.786 366.569 600.416 371.037 605.287 374.692C610.157 378.212 620.17 387.418 627.611 395.134C635.052 402.716 645.335 414.223 650.206 420.586C655.212 426.949 659 432.229 658.73 432.499C658.324 432.635 652.1 428.032 644.794 422.346C637.623 416.525 623.958 404.746 614.352 395.947C604.881 387.147 595.545 379.295 593.38 378.483C591.351 377.67 583.639 375.233 576.197 372.932C568.756 370.766 559.961 368.329 556.579 367.652C553.196 366.975 543.455 365.892 534.931 365.215C526.407 364.538 518.424 364.403 517.342 364.945C516.395 365.351 509.63 372.255 502.459 380.107C495.423 387.959 487.576 398.248 485.141 402.851C482.841 407.319 480.54 411.109 480.135 411.109C479.729 411.109 479.729 408.266 480.135 404.746C480.676 401.091 481.623 396.082 482.299 393.51C483.382 389.855 483.246 387.553 481.758 383.356C480.676 380.378 479.323 376.858 478.917 375.64C478.511 374.286 478.646 373.203 479.458 373.203C480.135 373.203 481.893 375.64 483.111 378.618C485.005 382.815 485.952 383.627 487.305 382.273C488.252 381.326 488.929 379.566 488.929 378.347C488.929 376.993 487.305 371.578 485.141 366.434C483.111 361.154 482.029 356.551 482.57 355.874C483.246 355.333 484.599 356.145 485.817 357.634C486.9 359.123 489.2 363.185 491.094 366.84C494.206 373.067 494.341 373.203 497.047 370.901C498.535 369.547 499.753 366.975 499.753 365.08C499.753 363.185 498.535 358.311 497.047 354.25C495.559 350.188 494.341 345.45 494.341 343.825C494.341 342.065 495.288 340.441 496.37 340.035C497.588 339.628 498.806 340.576 499.618 342.471C500.159 344.096 502.188 349.782 507.194 364.674L516.395 358.988L515.312 350.865C514.636 346.397 514.095 339.764 514.095 335.973C513.959 330.152 514.365 329.204 516.53 329.204C518.695 329.204 519.507 331.235 521.536 341.388C522.889 348.157 524.513 354.114 525.054 354.656C525.73 355.333 528.572 355.333 536.96 353.437L536.013 323.112ZM233.889 331.235C234.295 331.235 239.166 335.702 244.849 341.118C250.531 346.533 261.355 357.905 268.932 366.434C276.509 375.098 286.656 387.282 291.527 393.51C296.533 399.873 305.057 412.057 310.74 420.586C316.287 429.25 325.758 445.225 331.846 456.191C337.799 467.157 343.482 477.31 344.429 478.8C345.917 480.966 345.647 483.132 340.1 500.461L324.134 485.704C315.475 477.581 299.374 461.877 288.55 450.911C275.426 437.509 266.903 427.626 263.249 421.263C260.138 416.118 254.861 405.694 251.614 398.248C248.366 390.802 243.496 377.806 240.79 369.141C238.219 360.612 235.378 349.647 234.566 344.773C233.889 340.035 233.213 334.89 233.213 333.672C233.213 332.318 233.484 331.235 233.889 331.235ZM605.151 338.004C605.557 338.004 606.64 338.816 607.587 340.035C608.669 341.253 608.94 343.69 608.534 345.856C608.128 347.887 606.504 352.76 605.151 356.686C603.528 360.883 601.769 363.726 600.551 363.726C599.469 363.726 598.522 362.508 598.522 361.019C598.522 359.529 599.875 353.843 601.363 348.157C602.986 342.607 604.745 338.004 605.151 338.004ZM524.513 385.387C525.46 385.387 536.825 388.907 549.814 393.239C562.803 397.707 574.709 401.903 576.197 402.716C578.633 404.07 578.362 404.34 573.762 404.34C571.056 404.34 564.02 405.288 558.202 406.371C552.52 407.454 546.296 409.62 544.402 410.974C542.508 412.328 540.208 415.712 539.26 418.42C538.313 421.127 536.825 431.823 535.878 442.247C534.796 455.65 533.713 461.2 532.495 461.2C531.548 461.2 529.248 462.554 523.836 467.292L527.354 471.76C529.248 474.197 530.872 476.904 530.872 477.852C530.872 478.8 529.925 482.049 528.842 485.298C526.813 490.984 526.813 490.984 531.142 495.722C533.578 498.294 536.825 500.461 538.313 500.461C539.802 500.461 544.266 499.107 548.19 497.482C552.114 495.722 555.226 493.962 555.226 493.421C555.226 492.879 550.49 492.338 534.254 492.338L538.584 488.276C541.831 485.298 544.402 484.215 548.055 484.215C551.302 484.215 554.955 485.433 558.202 487.599C561.044 489.495 563.344 490.578 563.344 490.036C563.344 489.495 561.855 486.516 560.232 483.673C558.067 479.612 555.767 477.717 545.755 474.061L549.137 469.323C551.031 466.751 552.52 463.502 552.52 462.283C552.52 460.929 551.843 459.576 551.167 459.169C550.355 458.899 549.814 454.973 549.814 442.924L558.879 442.111C566.185 441.435 570.921 439.945 594.733 428.032L597.98 432.093C599.739 434.395 601.633 437.373 602.039 438.862C602.445 440.352 601.769 446.173 600.551 451.724C599.198 457.409 596.086 470.406 593.515 480.83C590.945 491.255 587.562 502.22 585.939 505.063C584.18 508.042 580.797 511.291 577.821 512.78C575.115 514.269 568.62 515.894 563.614 516.706C558.608 517.383 548.731 518.601 541.696 519.549C529.654 521.038 528.572 520.903 525.46 518.466C523.566 516.977 520.86 513.999 519.371 511.832C517.883 509.666 513.959 500.054 510.712 490.307C507.33 480.695 504.624 470.271 504.624 467.292C504.488 464.314 505.436 459.846 506.518 457.41C507.6 454.973 509.089 453.077 509.9 453.077C510.577 453.077 512.471 454.296 513.959 455.785C515.448 457.409 517.071 458.628 517.613 458.628C518.154 458.493 519.236 455.785 520.048 452.4C520.724 449.151 521.401 441.028 521.401 434.53C521.401 426.678 520.86 422.075 519.777 420.992C518.83 420.044 515.312 419.232 511.93 419.232C508.277 419.232 504.488 420.18 502.459 421.669C499.212 423.97 499.212 423.97 500.159 421.263C500.835 419.774 506.112 411.109 512.201 402.039C518.154 392.833 523.701 385.387 524.513 385.387ZM672.395 461.2C672.666 461.2 674.695 464.72 676.86 469.052C679.025 473.249 683.219 482.861 686.06 490.307C689.037 497.753 692.149 506.823 692.961 510.343C693.908 513.863 694.584 518.06 694.584 519.82C694.584 522.257 693.772 521.58 690.931 516.706C688.902 513.457 683.219 500.325 678.213 487.599C671.989 471.76 669.689 464.043 670.501 462.96C671.313 462.012 672.124 461.2 672.395 461.2ZM366.754 480.153C367.295 480.153 370.677 482.59 374.195 485.569C379.066 489.63 380.689 491.932 380.689 494.775C380.689 496.805 378.525 505.199 375.954 513.322C373.248 521.58 371.218 528.349 371.218 528.62C371.218 528.755 374.601 525.641 378.66 521.444C382.719 517.383 386.643 513.999 387.454 513.999C388.131 513.999 386.101 517.789 382.854 522.528C379.607 527.13 374.466 535.524 371.489 541.075C368.377 546.761 363.912 556.102 361.342 562.059C358.771 568.015 353.359 583.043 349.165 595.227C345.106 607.547 340.641 621.626 339.423 626.364C338.205 631.238 334.146 643.016 330.493 652.493C326.84 661.969 323.593 669.551 323.187 669.415C322.781 669.145 323.322 657.773 324.54 643.964C325.758 630.29 327.517 612.556 328.734 604.704C329.817 596.987 332.252 582.907 334.146 573.566C336.041 564.36 339.694 549.874 342.264 541.481C344.835 533.087 349.841 518.737 353.494 509.666C357.147 500.46 361.342 490.172 362.965 486.652C364.453 483.132 366.212 480.153 366.754 480.153ZM423.173 557.32C423.985 557.32 430.615 558.945 437.786 560.705C445.092 562.6 454.428 565.443 458.487 567.203C464.034 569.369 465.928 570.858 465.928 572.889C465.928 574.378 464.981 584.126 463.899 594.55C462.681 604.974 461.869 618.106 462.546 633.675L473.64 616.888C484.599 600.236 484.87 599.83 484.87 591.572C484.87 586.833 485.411 582.772 486.223 582.366C486.9 582.095 487.711 583.449 487.847 585.479C487.982 587.51 488.117 590.218 488.117 591.572C488.253 592.79 488.523 593.873 488.929 593.873C489.335 593.873 490.823 592.925 492.311 591.842C493.8 590.759 495.559 589.812 496.37 589.812C497.182 589.812 497.588 594.415 497.182 601.725C496.912 611.202 497.318 614.992 499.618 620.949C501.106 625.146 504.624 631.103 507.465 634.487C510.306 637.736 515.583 641.798 519.371 643.558C524.783 645.995 528.436 646.671 537.637 646.671C545.89 646.671 552.384 645.724 560.638 643.422C566.997 641.527 584.045 634.893 598.522 628.53C612.999 622.032 625.311 616.888 625.852 616.888C626.393 616.888 630.858 619.46 635.729 622.709C640.464 625.823 644.388 628.937 644.523 629.478C644.523 630.02 642.765 631.509 640.735 632.727C638.706 634.081 630.993 639.632 623.552 645.318C616.111 650.868 605.692 659.126 600.551 663.594C595.41 668.062 583.503 679.027 574.303 687.963C565.103 696.898 547.378 715.58 534.796 729.254C522.348 743.062 503.812 764.046 493.664 775.96C483.382 787.873 468.905 805.879 461.328 815.897C453.751 826.051 443.604 839.995 438.868 847.035C434.133 854.21 425.474 869.102 419.791 880.203C412.62 894.147 407.479 906.602 403.149 920.14C399.767 930.971 395.843 945.05 391.649 962.785L392.055 945.862C392.325 935.303 393.678 923.66 395.572 914.725C397.196 907.008 400.578 894.553 403.149 887.378C405.72 880.068 410.996 867.342 414.92 858.948C418.844 850.555 426.015 837.287 430.75 829.435C435.35 821.719 444.145 808.316 450.233 799.787C456.187 791.258 467.822 776.095 475.94 765.942C484.058 755.788 497.588 739.949 505.841 730.607C514.23 721.402 530.195 704.885 541.155 694.055C552.249 683.36 565.509 670.769 570.785 666.302C575.927 661.834 584.992 653.982 590.674 648.702C596.492 643.558 600.957 639.09 600.551 638.955C600.145 638.684 597.575 639.767 594.733 641.121C592.027 642.475 584.586 646.942 578.227 651.139C571.868 655.2 561.585 662.646 555.226 667.655C548.867 672.8 536.96 682.818 528.842 690.129C520.589 697.304 506.247 711.113 497.047 720.725C487.711 730.201 474.858 744.145 468.499 751.591C462.275 759.037 454.292 768.785 450.91 773.252C447.527 777.72 440.086 788.144 434.539 796.267C428.991 804.525 420.197 818.469 415.191 827.405C410.049 836.34 402.879 850.148 399.225 857.865C395.572 865.717 390.431 877.631 387.86 884.264C385.29 891.033 382.854 896.855 382.448 897.125C382.042 897.532 382.178 894.147 382.719 889.68C383.26 885.212 384.884 875.871 386.372 868.696C387.725 861.656 390.837 849.472 393.137 841.619C395.437 833.903 399.09 823.208 401.255 817.928C403.42 812.783 408.561 802.088 412.62 794.236C416.814 786.52 422.903 775.825 426.285 770.545C429.668 765.4 437.65 754.164 444.145 745.499C450.504 736.97 463.357 722.078 472.693 712.466C482.029 702.99 495.423 690.264 502.459 684.307C509.495 678.486 520.589 669.822 527.219 665.219C533.713 660.616 538.449 656.69 537.637 656.554C536.825 656.283 530.601 658.856 523.701 661.969C516.801 665.219 505.436 671.717 498.4 676.591C490.553 681.87 478.917 691.889 468.499 702.178C459.163 711.519 446.31 726.004 440.086 734.398C433.862 742.656 428.585 749.425 428.45 749.29C428.315 749.019 429.127 742.521 430.074 734.669C431.156 726.952 434.403 698.522 437.515 671.717C440.492 644.912 443.874 615.128 444.821 605.38C445.904 595.768 446.445 587.51 446.174 587.104C445.768 586.833 444.686 587.375 443.604 588.458C442.521 589.676 436.568 599.018 430.344 609.442C423.444 621.22 417.897 629.072 415.732 630.02C413.973 630.967 408.426 632.727 403.42 634.081C396.519 635.976 393.543 636.247 386.778 633.675L387.184 621.626C387.454 614.992 388.401 605.516 390.972 591.842L392.866 604.027C393.813 610.796 394.761 616.617 395.031 616.888C395.302 617.294 400.984 613.368 420.062 598.611L419.926 592.519C419.926 589.27 420.332 579.929 420.738 571.941C421.279 562.736 422.226 557.32 423.173 557.32ZM607.857 564.631C608.128 564.902 607.722 575.191 606.775 587.375C605.692 599.559 604.204 610.119 603.392 611.066C602.581 611.879 597.169 614.18 591.351 616.076C585.398 618.106 577.821 619.595 573.762 619.595C569.026 619.595 564.561 618.648 559.961 616.346C556.173 614.586 551.167 610.931 548.731 608.223C545.755 604.839 544.402 601.996 544.402 599.018C544.402 596.581 545.078 592.519 546.025 589.947C547.649 585.615 548.055 585.48 553.196 586.292C556.173 586.698 560.097 588.187 561.991 589.541C563.885 590.895 567.538 595.498 570.109 599.694C572.679 603.891 575.115 607.14 575.521 606.87C575.927 606.734 580.662 599.83 586.209 591.707C591.757 583.584 598.657 574.108 601.633 570.452C604.61 566.932 607.451 564.225 607.857 564.631ZM518.966 594.144C519.777 594.415 524.919 600.371 530.601 607.411C536.554 614.722 544.266 622.438 555.902 630.561L548.731 630.426C544.131 630.426 539.531 629.343 535.201 627.312C531.684 625.552 526.948 621.897 524.783 619.325C522.483 616.617 519.913 612.149 519.101 609.306C518.154 606.463 517.477 601.725 517.477 598.882C517.612 596.039 518.289 593.873 518.966 594.144ZM663.736 600.642C669.148 600.642 682.137 601.319 692.555 601.996C702.973 602.808 716.367 604.027 722.321 604.839C728.274 605.651 734.903 607.14 737.204 608.223C741.127 610.119 740.857 610.119 732.739 609.442C728.138 609.171 724.35 609.306 724.35 609.848C724.35 610.389 728.815 611.879 734.092 613.232C739.504 614.451 750.057 617.565 771.028 624.334L748.704 624.74C736.392 625.011 718.397 624.604 708.791 623.792C699.049 622.98 688.09 621.491 684.437 620.543C680.648 619.46 674.966 617.294 671.583 615.669C668.201 613.909 662.924 610.525 659.677 607.953C656.565 605.38 653.994 602.808 653.994 601.996C653.994 601.319 658.189 600.642 663.736 600.642ZM658.189 634.487C658.865 634.487 662.383 635.3 672.801 637.872L678.213 657.502C681.19 668.332 686.331 689.046 689.713 703.531C693.096 718.152 695.937 731.149 695.937 732.638C695.937 734.127 694.043 739.407 691.743 744.145C689.443 749.019 686.602 754.028 685.384 755.382C683.49 757.277 680.919 757.819 672.53 757.819C663.059 757.683 662.112 757.548 662.112 754.976C662.112 753.487 661.165 747.936 659.948 742.521C658.73 737.106 657.377 733.315 656.836 733.992C656.159 734.804 654.4 741.844 652.777 749.561C651.288 757.413 649.529 766.889 648.312 777.314L656.159 778.397C660.624 778.938 667.795 781.104 672.26 783.135C676.725 785.301 683.084 789.769 686.466 793.018C689.849 796.267 695.261 803.036 698.643 807.774C702.026 812.648 709.738 824.562 715.691 834.174C721.779 843.921 732.468 862.197 739.639 874.788C746.674 887.513 753.71 900.239 755.198 903.218C756.822 906.196 758.04 908.227 758.04 907.685C758.175 907.144 756.281 899.156 753.981 890.086C751.681 880.88 744.645 855.564 738.286 833.497C732.062 811.565 724.215 782.594 720.968 769.191C717.72 755.788 713.12 733.857 710.82 720.454C708.52 707.051 705.408 689.722 703.92 681.87C702.567 674.154 699.861 661.563 698.102 654.117C696.208 646.671 695.125 640.309 695.396 639.902C695.802 639.632 707.573 650.868 721.779 664.948C738.421 681.6 747.216 689.452 746.674 687.286C746.133 685.526 743.969 680.652 741.939 676.455C739.774 672.394 734.498 663.594 729.897 656.825C725.432 650.191 720.562 643.016 716.232 637.195L720.562 637.872C722.997 638.278 732.874 639.226 742.616 640.038C752.222 640.715 762.234 641.798 764.805 642.339C768.458 643.152 771.57 645.859 779.552 655.471C785.235 662.24 793.894 673.206 798.765 679.84C803.771 686.609 809.589 694.596 811.754 697.845C813.918 700.959 815.136 703.937 814.595 704.208C814.054 704.614 811.348 703.261 808.506 701.094C805.8 699.064 797.547 693.242 790.241 688.233C783.07 683.224 776.846 679.298 776.44 679.569C776.17 679.704 778.335 687.556 781.311 696.762C785.505 710.03 787.806 714.903 791.594 719.1C794.3 722.078 802.553 730.878 810.13 738.459C817.571 746.176 823.93 752.268 824.201 751.998C824.336 751.862 821.63 743.604 818.113 733.721C814.46 723.838 812.024 715.851 812.565 715.851C813.107 715.716 816.218 718.288 819.33 721.537C823.119 725.192 828.666 734.127 834.89 746.176C840.302 756.6 844.767 766.077 844.767 767.16C844.767 768.379 840.843 777.449 835.837 787.467C830.966 797.621 823.795 812.513 820.142 820.635C816.354 828.894 812.43 837.693 809.318 845.004L798.765 818.605C793.082 804.119 784.964 784.624 780.77 775.283C776.44 766.077 769.811 752.674 765.752 745.499C761.693 738.459 754.792 727.9 750.463 721.943C746.133 716.122 736.527 705.562 729.086 698.658C721.644 691.618 715.42 686.203 715.15 686.609C715.014 687.015 715.556 688.639 716.367 690.399C717.314 692.024 719.75 698.251 721.915 704.208C724.215 710.165 728.003 721.808 730.574 729.931C733.145 738.189 738.286 756.736 741.939 771.222C745.592 785.843 750.192 804.931 752.086 813.866C753.981 822.802 757.363 840.266 759.528 852.45C761.693 864.77 765.616 888.867 768.322 905.925C771.028 923.119 774.411 945.321 775.764 955.339C777.252 965.493 778.335 974.428 778.47 975.375C778.47 976.594 775.629 977 758.851 977L759.799 953.308C760.475 938.281 760.34 927.045 759.528 922.577C758.716 918.38 754.792 909.716 750.463 901.864C746.269 894.418 739.098 882.234 734.633 874.788C730.168 867.342 721.238 853.398 714.744 843.65C708.249 834.038 699.726 823.072 695.667 819.282C691.066 814.814 683.625 809.94 674.966 805.744C667.524 802.088 656.43 795.319 650.206 790.581C644.118 785.978 638.029 782.052 636.676 782.052C635.323 782.052 633.158 784.218 631.535 787.196C629.099 791.393 628.423 795.455 627.611 811.159C627.205 821.583 625.852 837.423 624.77 846.358C623.687 855.293 621.793 867.477 620.711 873.434C619.493 879.391 617.058 889.815 615.299 896.449C613.54 903.218 609.887 915.131 607.181 922.848C604.475 930.7 601.092 939.5 599.469 942.478C597.98 945.456 593.515 953.308 589.457 959.807C585.533 966.305 582.286 972.126 582.286 972.668C582.286 973.209 587.292 973.209 593.38 972.668C601.228 971.991 606.098 970.773 609.346 968.742C611.916 967.117 622.876 958.724 633.699 950.059C644.388 941.53 661.165 927.586 670.907 919.193C682.407 909.31 688.766 904.571 689.443 905.654C689.849 906.602 692.149 918.245 694.314 931.648C696.614 945.05 698.914 960.754 700.673 977H631.941C587.156 977 563.344 976.594 563.344 975.646C563.344 974.969 566.456 959.265 570.109 940.853C573.897 922.442 579.986 893.876 583.639 877.495C587.292 861.114 594.463 830.654 599.739 809.805C604.881 788.956 614.352 752.133 620.711 727.9C627.07 703.802 631.941 683.63 631.535 683.224C631.264 682.953 628.423 684.984 625.446 687.963C622.47 690.941 616.246 698.928 611.781 705.562C607.316 712.331 601.363 722.349 598.522 727.9C595.68 733.586 590.404 745.093 586.615 753.622C582.827 762.286 577.009 775.96 573.762 784.083C570.379 792.341 562.803 812.107 556.849 828.081C550.896 844.192 540.478 873.028 533.848 892.387C527.083 911.747 518.018 938.687 505.841 977H477.023C452.398 977 448.339 976.729 448.339 974.969C448.339 973.886 452.398 960.077 457.269 944.238C462.14 928.398 469.446 906.331 473.505 895.095C477.564 883.994 484.058 867.477 487.847 858.542C491.5 849.607 497.182 837.152 500.429 830.789C503.541 824.562 509.359 813.866 513.283 807.097C517.207 800.464 524.783 788.55 529.925 780.698C535.201 772.982 544.266 759.85 550.22 751.591C556.173 743.469 570.515 724.921 582.15 710.3C593.651 695.815 610.834 676.32 620.17 667.114C629.37 657.773 641.547 646.671 646.959 642.339C652.371 638.007 657.512 634.487 658.189 634.487ZM955.306 652.357C978.713 652.222 985.478 652.493 985.478 653.847C985.478 654.794 981.825 662.782 977.495 671.717C973.166 680.652 968.701 689.181 967.754 690.535C965.86 692.972 965.454 692.836 957.742 688.775C950.977 685.255 948.135 684.578 940.829 684.578C935.958 684.713 930.952 685.39 929.735 686.338C928.517 687.286 926.893 689.722 926.082 691.753C925.27 693.784 924.593 697.304 924.593 699.47C924.593 702.854 923.917 703.667 920.805 704.479C918.775 704.885 914.852 706.374 912.01 707.864C909.305 709.217 905.787 712.06 904.298 714.091C902.675 716.122 901.457 719.777 901.592 722.214C901.592 724.651 902.269 727.629 903.081 728.983C904.298 730.878 903.757 732.232 899.698 736.429C895.775 740.49 894.827 742.521 894.827 746.853C894.827 749.831 895.369 753.487 896.18 754.976C897.128 757.007 896.992 758.631 895.233 761.474C893.745 764.046 893.339 766.619 893.88 770.274C894.422 773.117 896.722 777.449 899.157 780.157C901.592 782.864 905.922 786.384 908.763 788.009C911.469 789.633 913.769 791.799 913.769 792.882C913.769 794.101 909.575 804.39 904.298 815.897C899.022 827.54 887.521 851.367 863.032 901.322L845.714 901.187C836.243 901.187 828.531 900.916 828.531 900.51C828.531 900.239 830.019 896.042 831.778 891.439C833.672 886.701 839.355 871.403 844.496 857.188C849.637 843.109 860.056 813.866 867.632 792.206C875.074 770.68 883.598 746.853 891.716 725.869L887.251 725.598C883.598 725.328 882.786 724.786 883.327 722.891C883.733 721.537 891.174 705.427 915.799 653.711L920.534 653.17C923.105 652.764 938.8 652.493 955.306 652.357ZM944.888 694.596C948.947 695.002 955.306 696.898 959.095 698.522C963.018 700.418 967.889 704.208 970.73 707.728C973.436 710.977 977.36 717.069 979.525 721.131C981.69 725.328 984.125 730.337 985.072 732.367C986.155 734.533 986.29 736.023 985.478 736.023C984.666 736.023 979.254 731.555 973.301 725.869C964.913 718.017 960.583 715.039 954.089 712.737C948.271 710.571 943.941 707.863 939.882 703.531C935.147 698.658 934.335 697.168 935.688 695.679C936.906 694.325 939.476 694.055 944.888 694.596ZM923.917 714.362C926.082 714.362 933.794 717.069 940.829 720.319C947.865 723.568 955.036 727.629 956.659 729.524C958.283 731.284 963.56 739.949 968.43 748.884C973.301 757.819 976.954 765.265 976.548 765.536C976.278 765.671 969.377 759.173 961.395 751.05C949.083 738.595 945.7 736.023 939.476 733.857C935.417 732.503 927.705 729.118 922.564 726.546C917.287 723.974 913.093 720.86 913.093 719.777C913.093 718.694 914.581 717.069 916.475 716.122C918.37 715.174 921.617 714.362 923.917 714.362ZM916.746 741.573C920.264 741.438 926.082 742.25 929.599 743.062C934.335 744.281 937.717 746.312 942.047 750.915C945.294 754.299 950.841 761.61 954.494 767.16C958.148 772.846 960.718 777.449 960.448 777.72C960.042 777.855 954.765 773.794 948.541 768.649C942.453 763.369 934.335 757.684 930.682 755.924C926.893 754.164 919.723 751.591 914.716 750.102C909.71 748.748 905.516 746.853 905.381 745.905C905.245 745.093 906.328 743.739 907.816 742.927C909.169 742.115 913.228 741.573 916.746 741.573ZM909.71 764.453C911.199 764.453 914.716 765.4 917.422 766.619C920.264 767.837 924.864 770.68 927.841 773.117C930.682 775.418 934.876 779.886 936.906 783.135C939.07 786.249 940.559 788.821 940.153 788.821C939.747 788.821 937.717 787.738 935.688 786.384C933.658 784.895 926.352 780.969 919.452 777.584C912.552 774.065 906.734 770.68 906.328 769.868C905.922 769.191 905.922 767.702 906.328 766.483C906.598 765.4 908.087 764.453 909.71 764.453ZM659.542 815.22L663.871 820.094C666.171 822.802 670.772 829.977 673.883 836.069C678.213 844.192 679.701 848.659 679.701 853.127C679.701 857.73 679.16 859.219 677.672 859.219C676.589 859.219 672.395 857.188 668.471 854.616C661.977 850.419 661.301 849.472 660.353 843.515C659.812 839.86 659.406 832.007 659.406 826.051L659.542 815.22ZM824.472 914.725H838.002C845.443 914.725 851.532 915.131 851.532 915.402C851.532 915.808 845.714 924.743 838.543 935.438C831.372 945.998 825.284 955.068 825.013 955.339C824.742 955.745 824.472 946.81 824.472 935.438V914.725Z" fill="white"/>
<path d="M108.195 43.7349C105.648 44.6691 102.834 46.5376 101.896 48.0056C100.958 49.3402 99.2162 52.81 98.1441 55.4792C96.9381 58.2818 96 63.3532 96 66.8231C96 70.9603 97.0721 75.0974 99.0822 78.5673C100.69 81.3699 104.174 85.2402 106.721 86.9752C109.267 88.7101 112.885 90.445 114.761 90.8454C116.637 91.2458 120.523 90.8454 123.471 89.9112C126.42 88.977 130.574 86.3079 132.852 84.0391C135.13 81.6369 137.676 77.0993 138.614 73.8963C139.686 70.5599 140.088 65.7554 139.686 63.2197C139.15 60.684 137.14 56.013 135.13 52.9435C133.12 49.7405 129.368 46.0037 126.822 44.6691C124.275 43.2011 119.987 42 117.441 42C114.895 42 110.741 42.8007 108.195 43.7349ZM171.044 49.4736C168.23 52.2762 165.281 56.9472 164.343 59.8833C163.271 63.2197 163.003 67.6238 163.673 71.8945C164.477 77.2328 165.683 79.635 170.24 84.1725C175.198 89.2439 176.404 89.7778 182.166 89.9112C185.65 89.9112 190.073 89.1105 191.949 88.1763C193.825 87.3755 196.907 84.1725 198.783 81.2365C201.061 77.7666 202.535 73.4959 202.937 69.2253C203.205 64.1539 202.669 61.0844 200.257 56.5469C198.515 53.2104 195.031 49.2067 192.485 47.4717C189.403 45.4699 185.784 44.5357 181.898 44.5357C176.94 44.5357 175.332 45.3364 171.044 49.4736Z" fill="#222222"/>
</svg>
