<svg version="1.2" xmlns="http://www.w3.org/2000/svg" viewBox="0 0 1024 1024" width="1024" height="1024">
	<title>image</title>
	<style>
		.s0 { fill: #ffffff } 
		.s1 { fill: #2e2e2e } 
	</style>
	<g id="Background">
		<path id="Path 0" class="s0" d="m0 512v512h1024v-1024h-1024z"/>
		<path id="Path 1" fill-rule="evenodd" class="s1" d="m221 149.4c3.6 0.2 7.8 1 9.5 1.7 1.7 0.7 4.9 2.6 11.5 6.9l6.8-2.1c3.7-1.1 10.3-2.3 14.7-2.6 5.4-0.4 9.7-0.2 13 0.7 3.9 1.1 6.4 2.7 11.1 7.4 4.4 4.5 6.5 7.5 7.7 11.1 0.9 2.7 1.9 7 2.2 9.5 0.4 2.5 0.2 7-0.4 10-0.6 3-2.7 8.2-4.7 11.5-3.2 5.4-3.4 6.2-2.2 8.5 0.7 1.4 1.7 2.8 2.3 3.2 0.5 0.4 4.9 0.8 9.8 0.8 4.8 0 15.1-1.1 22.9-2.4 7.9-1.4 16.8-2.6 25.3-3.1l0.5 62.5-3.7 1c-2.1 0.5-6.3 1.2-9.3 1.6-4.4 0.5-8.3-0.1-19.5-2.9-7.7-2-17.1-3.7-28-4.2l-0.3 6.5c-0.2 3.6-0.9 6.8-1.5 7.2-0.7 0.4-3.1 0.8-5.4 0.8-2.4 0-4.3 0.3-4.3 0.7 0 0.5 1 3.3 2.3 6.3 1.4 3 5.2 12.9 8.7 22 3.4 9.1 8.2 20.3 10.6 25 2.4 4.7 8.8 14.4 14.2 21.5 5.4 7.1 15.8 20.2 23.2 29.1 7.4 8.8 17.6 21.4 22.6 28 5 6.5 11.8 16 15 20.9 3.3 4.9 8.1 12.6 10.6 17 2.4 4.4 5.9 10.7 7.6 14 3 5.8 3.4 6 8.4 7.2 2.9 0.6 8 2.4 11.3 4 3.3 1.5 8.6 5.3 11.9 8.3 3.5 3.2 6.9 7.6 8.2 10.5 1.3 2.7 2.4 6.5 2.4 8.2 0 2.8 1.2 4.4 7 10 4.5 4.4 7.2 7.9 7.7 10 0.7 3 1.2 3.3 5.8 3.9 2.8 0.3 7.9 1.3 11.5 2.1 3.6 0.8 9.2 2.8 12.5 4.5 3.3 1.6 8.7 4.9 12 7.3 3.3 2.4 6.8 4.6 7.8 4.9 1.5 0.5 1.7-0.3 1.7-9.7 0-6 0.6-12.5 1.5-15.7 0.8-3 2.3-8.6 5-19.3l-2.4-1.6c-1.4-0.9-4.4-3.5-6.8-5.9-2.5-2.5-4.7-5.7-5.3-8-0.6-2-1.3-6.8-2.5-17.4l-5.5 0.6c-3 0.4-10.9 1.8-17.5 3.1-6.6 1.3-13.6 2.5-15.5 2.7-2.4 0.2-3.5-0.1-3.7-1.2-0.2-1 5.1-4.3 17.3-10.5 9.7-4.9 18.7-9.8 20-10.8 2.4-1.7 2.4-1.7-1.1-8.8l-10 0.5c-5.5 0.3-21.7 0.9-36 1.2-23.3 0.6-26.1 0.5-26.7-1-0.5-0.9-0.6-2-0.3-2.6 0.3-0.6 1.3-1 2.3-1 0.9 0 15.9-2.8 33.2-6.1 17.3-3.4 31.9-6.4 32.3-6.8 0.4-0.3 0.2-3.6-1.8-14l-5.5-0.7c-3-0.3-12.7-1.4-21.5-2.5-8.8-1.1-24.8-3.3-35.5-5-10.7-1.6-19.6-2.9-19.7-2.9-0.2 0-0.3-0.8-0.3-1.8 0-1.5 1.6-1.8 13.7-2.5 7.6-0.4 22.6-0.7 33.3-0.7 10.7 0 23.7-0.3 38.2-1.5l3-6c1.6-3.3 3.4-6.4 3.9-7 0.5-0.6 0.9-1.4 1-2 0-0.6-5.3-5-11.8-9.9-6.5-4.9-21.9-16.9-34.2-26.5-12.3-9.7-22.5-17.9-22.7-18.4-0.2-0.4 0.2-1 0.9-1.3 0.6-0.3 6.6 2.3 13.2 5.9 6.6 3.5 24.4 13 39.5 21 15.1 8.1 27.9 14.7 28.5 14.7 0.6 0 3-1 5.5-2.4 2.5-1.3 6.2-2.9 8.3-3.5 2-0.6 3.7-1.5 3.7-2.1 0-0.6-3.3-12.8-7.4-27.3-4.1-14.4-9.1-32.3-11-39.7-2-7.4-3.6-13.8-3.6-14.3 0-0.4 0.9-0.6 2-0.5 1.6 0.2 6.3 8.7 21.3 38.3 10.5 20.9 19.7 38.8 20.2 39.6 0.8 1.3 3.2 1.7 21.6 2.4l8.3-20c4.5-11 11.8-28.9 16.2-39.8 4.4-11 8.5-19.7 9.2-19.7 0.6 0 1.2 1 1.2 2.2 0 1.3-2.9 18.7-6.4 38.8-3.6 20.1-7 38.8-7.6 41.5-0.5 2.7-0.9 5.1-0.8 5.1 0.2 0.1 2.3 1.2 4.8 2.4 2.5 1.2 5.7 3.1 10 6l8.8-6.7c4.8-3.7 16.1-12.7 25.2-19.9 9.1-7.3 20.2-16.2 24.8-19.8 4.5-3.6 8.7-6.6 9.2-6.6 0.5 0 0.9 0.6 0.8 1.4-0.2 0.8-3.7 5.4-7.8 10.2-4.1 4.8-12 13.8-17.5 20-5.5 6.1-14.5 16-30 32.5l8 7.9 20.5-8.4c11.3-4.6 29.4-12.2 40.3-17 10.8-4.7 20.2-8.4 20.7-8.1 0.5 0.3 1 0.9 1 1.5 0 0.6-7.5 6-16.7 12.2-9.3 6.1-25.1 16.5-35.3 23.1-10.2 6.5-18.6 12-18.7 12.1-0.1 0 1 2.7 2.5 5.8 2.2 4.7 3.1 5.7 4.7 5.3 1.1-0.3 6.7-1.2 12.5-2 5.8-0.8 20-2.6 31.5-4 11.5-1.5 22.9-3 25.3-3.3 2.3-0.4 4.5-0.5 4.8-0.2 0.2 0.3 0.4 1.2 0.4 2 0 1-2 2.1-5.7 3.1-3.2 0.9-13.4 4-22.8 6.9-9.4 2.9-22.6 6.9-42 12.8l-0.5 34.2 4.1 8.2c2.3 4.6 5.7 12.6 7.6 17.8 1.9 5.2 4.5 13.4 5.9 18.2 1.3 4.9 2.4 9.8 2.4 11-0.1 1.3-1.6 4.8-3.4 7.8-1.8 3-3.8 6.4-4.4 7.5-0.8 1.5-0.6 3.1 0.9 6.5 1.1 2.5 4.1 8 11.4 19.9l6 0.7c3.3 0.3 9.1 1.4 13 2.4 3.9 1 9.5 3 12.5 4.5 3 1.5 7.5 4.4 10 6.5 2.5 2 5.9 6.4 7.7 9.6 2.2 4.2 4.5 6.8 8 9.1 2.6 1.7 8.1 6 12.2 9.5 4.1 3.5 10.8 10.3 14.9 15.3 4.2 5 10.5 13.5 14.1 19 3.5 5.5 8.3 12.4 10.5 15.3 2.3 2.9 4.4 4.9 4.8 4.5 0.4-0.4 6.4-12.3 13.3-26.3 7-14 13.5-26.6 16.3-30.5l28.3-1c15.6-0.5 30.4-0.9 32.9-0.9 2.9 0.1 6.7 1.2 10.8 3.2 3.4 1.8 7.3 4.3 8.7 5.7 1.4 1.4 2.5 3.6 2.5 5 0 1.4-2.3 7.1-5.1 12.7-5 10.2-5.1 10.4-3.8 14.8 0.8 3.1 1 7.8 0.6 15-0.4 5.8-2.2 26.5-4.2 46-2 20.8-4.1 37.4-5 40-0.9 2.5-2.7 6.3-4 8.5-1.2 2.2-4.5 6.2-7.2 8.9-2.6 2.7-5.8 5.5-7 6.2-2.2 1.3-2.3 2-2.3 14.6 0 7.3-0.5 17.3-1.1 22.3-0.6 5-2.2 12.8-3.5 17.5-1.4 4.7-4.9 13.5-7.9 19.5-3.1 6-7.9 13.9-10.8 17.5-2.8 3.5-7.4 7.8-15 12.5l-397.7 0.5-3.3-2.8c-1.9-1.7-3.7-4.7-4.5-7.3-1-3.4-1.2-12.1-0.9-38.4 0.3-29.9 0.7-35.1 2.5-43 1.1-5 3.6-14.2 9-32l-7-7.5c-4.6-5-7.3-8.8-8-11.5-0.9-3-0.8-5.2 0-8.8 0.7-2.6 1.2-6.4 1.2-8.5 0-2.3-0.8-4.7-2.3-6.5-1.5-1.9-4.1-3.2-8.7-4.5-3.6-0.9-7.7-2.5-9.3-3.5-1.5-0.9-3.9-3.4-5.3-5.5-2-2.9-2.6-5.1-2.7-10.2-0.1-3.6 0.2-8.8 1.4-16.5l-11.3-0.5c-10-0.4-11.8-0.8-16.1-3.3-2.6-1.5-6-4.6-7.6-7-1.6-2.3-3.6-6.5-4.6-9.2-1.2-3.5-1.9-9.3-2.3-19-0.2-7.7 0.1-22.8 0.7-33.5 0.7-10.7 1.9-24.7 2.6-31 0.8-6.3 2.2-15.5 4.8-29.5l-4.5-8.5c-2.5-4.7-9.9-16.4-16.4-26-6.5-9.6-16-23.8-21.1-31.5-5.2-7.7-12-19.2-15.2-25.5-3.3-6.3-9.9-21.2-14.9-33-4.9-11.8-10.4-24.6-12.1-28.5-1.8-3.9-3.4-7.1-3.7-7.3-0.2-0.1-2.1 1.7-4.2 4-2 2.2-5.2 4.7-7 5.5-1.7 0.7-4.8 1.3-6.7 1.3-1.9 0-4.7-0.6-6.3-1.4-1.5-0.8-3.9-2.7-5.4-4.3-1.5-1.5-3.6-4.8-4.7-7.3-1.1-2.5-2.7-8.6-3.6-13.5-0.9-5.3-2.2-9.7-3.3-10.8-0.9-1-2.1-1.7-2.7-1.7-0.6 0.1-2.9-2-5.3-4.5-2.6-2.8-4.6-6.1-5.3-8.8-0.6-2.3-0.8-5.4-0.5-7 0.4-1.9-0.1-4-1.9-7-1.5-2.5-2.5-5.8-2.5-8.2 0-2.2 0.5-4.4 1.1-5 0.8-0.7 0.5-2.4-1.2-6.2-1.3-2.9-3.1-5.4-3.9-5.7-0.8-0.3-12.1-2.1-25-4.1-12.9-2-24.5-3.9-25.7-4.3-1.3-0.4-2.3-1.1-2.3-1.7-0.1-0.6 5.9-2.4 13.2-4.1 7.3-1.8 22-5.1 51.8-11.9v-27c0-14.9-0.4-27.5-0.8-28.1-0.4-0.6-2.3-1.9-4.2-2.9-2-1-7.8-2.2-13.5-2.7-5.5-0.6-11.8-1.3-14-1.6-3.6-0.6-4-1.1-5.3-5.2-0.9-3-1.2-7.8-0.9-14 0.3-7.8 0.8-10.5 3.1-15 1.5-3 4.6-7.4 6.9-9.7 2.4-2.5 7.1-5.6 11.2-7.5 3.8-1.7 10.8-3.9 15.5-5 5.3-1.1 11-1.6 15-1.4zm-36.5 62.5l5.5 0.6c3 0.3 7 0.8 12 1.5l-0.5 53.5-5 1.1c-2.8 0.7-6.6 1.3-12 1.4l-0.8-14.2c-0.4-7.9-0.4-21 0-29.1zm-43.9 8.7c0.8 0.2 1.7 1.3 2 2.4 0.2 1.1 1 2 1.7 2 0.7 0 4.1-0.9 7.6-2.1 4-1.2 7.7-1.8 9.8-1.5 1.8 0.4 5 2.1 6.9 3.9 2 1.8 4.2 5.1 5 7.7 0.8 2.5 1.5 7 1.5 10 0 3-0.7 7.5-1.6 10-0.8 2.5-2.7 6-4 7.8-1.3 1.7-4.1 4.4-6.2 5.8-3.1 2.1-4.5 2.5-8.2 2-2.5-0.4-5.9-1.4-10.7-4.1l-0.5 5c-0.3 2.8-1.3 6.2-2.2 7.8-0.9 1.5-2.1 2.7-2.6 2.7-0.6 0-1.5-1.7-2.1-3.7-0.7-2.4-1-13-0.8-28.4 0.3-18 0.7-25 1.6-26.2 0.7-0.9 2-1.4 2.8-1.1z"/>
		<path id="Path 2" fill-rule="evenodd" class="s0" d="m223.5 159.6c2.2 0.3 5.7 1.5 7.8 2.7 2.1 1.2 5.2 4.2 6.8 6.7 1.7 2.5 3.6 6.8 4.5 9.5 0.8 2.8 1.4 5.7 1.4 6.5 0 0.8-0.7 4-1.6 7-1.1 3.9-2.8 6.7-5.8 9.5q-4.1 4.1-8.8 5.3c-3.5 0.9-6.1 0.9-9.5 0.2-2.8-0.6-6.5-2.4-8.7-4.3-2.2-1.7-5-5.4-6.3-8.2-1.6-3.5-2.3-6.8-2.3-11 0-4.2 0.7-7.5 2.4-11 1.3-2.7 3.6-6.2 5.2-7.8 1.6-1.5 4.7-3.4 6.9-4.2 2.4-0.9 5.6-1.3 8-0.9zm47 2.4c2.9-0.1 5.3 0.8 9 3.2 3.5 2.4 5.7 4.8 7.7 8.8 2.2 4.3 2.9 6.8 2.8 11.5 0 4.3-0.7 7.1-2.3 9.9-1.2 2.2-3.9 5.3-6 7-3.4 2.7-4.6 3.1-10.2 3.1-5.5 0-6.8-0.4-10.2-3.1-2.1-1.6-5-5.5-6.6-8.5-1.8-3.6-2.7-6.9-2.7-9.9 0.1-2.5 0.6-6.1 1.3-8 0.7-2 2.4-5.1 3.8-7 1.4-1.9 4.1-4.3 6-5.2 1.9-1 5.2-1.8 7.4-1.8zm68.5 61v39h-7l-0.2-18.8c-0.1-10.4 0.2-19.2 0.7-19.5 0.5-0.4 2.1-0.7 6.5-0.7zm-91.5 0.9l32 0.6 0.5 22.5h-6.8c-3.7 0-8.9-0.3-11.5-0.7-3.7-0.6-4.6-1.1-4.1-2.3 0.4-0.8 0.9-2.6 1.2-4 0.4-1.9-0.5-3.6-3.4-7-2.2-2.5-4.8-5.5-5.9-6.8zm55.4 0.5c11 0.6 11.7 0.7 13.6 3.3 1.1 1.5 2.5 4 3.2 5.7 0.6 1.7 1.2 3.9 1.2 4.9 0.1 1.4-0.8 1.7-4.2 1.7-2.3 0-5.7-0.3-7.5-0.7-2.7-0.7-3.2-1.3-3.2-3.5 0-1.8-0.8-3.3-2.3-4.2-1.2-0.8-4.3-1.7-7-2-2.9-0.4-4.9-1.2-5.2-2.1-0.3-0.8-0.4-2-0.3-2.7 0.1-0.8 3.3-0.9 11.7-0.4zm-150.3 25.6c0.5 0 1.9 1.7 3.1 3.7 1.1 2.1 3.1 4.7 4.2 5.8 1.2 1.1 2.1 2.3 2.1 2.8 0 0.4-1 0.7-2.3 0.7-1.2 0-3.2-1-4.4-2.2-1.2-1.3-2.5-4.2-2.9-6.5-0.4-2.4-0.3-4.3 0.2-4.3zm97.8 22.5c0.6 1.1 2.9 3.8 5.2 6 2.2 2.2 6.2 5.7 8.7 7.8 3.5 2.8 5.7 5.8 8.7 12 2.2 4.5 4.9 12 6 16.7 1.2 4.7 2 8.8 1.8 9.2-0.2 0.5-4.4-2.9-9.3-7.5-5-4.6-10-9.9-11.2-11.8-1.2-1.9-2.3-4.9-2.3-6.6 0-2.6-0.6-3.6-2.8-4.7-1.5-0.7-4.2-3.5-6-6.2-2-3.1-3.3-6.2-3.3-8.4-0.1-2 0.7-4.7 1.7-6 1.7-2.4 1.8-2.4 2.8-0.5zm-31.2 21.6c0.5-0.1 2.9 0.3 5.5 0.9 2.7 0.5 6.7 2.3 9 4 2.4 1.6 4.3 3.5 4.3 4 0 0.6-1 1-2.3 1-1.2 0-5.4-1-9.2-2.1-5.4-1.7-8.4-2-13.3-1.5-3.9 0.4-6.2 0.2-6.2-0.4 0-0.5 1.4-1.7 3-2.7 1.7-0.9 4.3-1.9 5.8-2.4 1.5-0.4 3-0.8 3.4-0.8zm-1 13.9c2.9 0 7.9 1.2 12.5 2.9 4.3 1.6 8.4 3.7 9 4.5 0.7 0.9 1 1.8 0.5 2.1-0.4 0.2-4.5-0.2-9.2-1-6.6-1.2-9.9-1.2-15-0.4-5.6 0.9-6.7 0.8-8-0.5-1.1-1.3-1.2-2.1-0.4-3.4 0.6-0.9 2.2-2.3 3.5-2.9 1.3-0.7 4.5-1.3 7.1-1.3zm6.5 16c3.8 0 8.5 0.8 11.8 2 3 1.1 5.5 2.5 5.5 3 0 0.6-3.4 1-8.3 1-7.3 0-8.8 0.4-13.2 3-2.8 1.6-5.6 3-6.3 3-0.6 0-1.7-1.3-2.2-3-0.6-1.6-0.8-3.4-0.5-4 0.3-0.5 2-1.9 3.7-3 2.4-1.4 5.1-2 9.5-2zm308.1 49h2.8c2.7 0 2.9 0.3 3.1 4.8 0.2 2.6 0.3 6.7 0.3 9.2 0 2.5 0.2 5.5 0.5 6.8 0.4 1.9 1.1 2.2 5 2.2 4.4 0 4.5 0 4.9-3.7 0.3-2.1 0.7-7.3 1-11.5 0.6-7.7 0.6-7.8 6.1-7.8l-1.4 23.5 3.7 1.4c2 0.8 4.3 1.5 4.9 1.7q1.3 0.4 1.3-3.1c0-1.9 0.5-5.9 1-8.7 0.6-2.9 1.3-6.3 1.5-7.5 0.3-1.5 1.2-2.3 2.5-2.3 1.6 0 2 0.7 1.9 3.3 0 1.7-0.8 6.9-3.4 19.8l4.5 2.6c2.5 1.4 7.4 4.7 11 7.4 3.6 2.6 11 9.4 16.5 15.1 5.5 5.6 13.1 14.1 16.7 18.8 3.7 4.7 6.5 8.6 6.3 8.8-0.3 0.1-4.9-3.3-10.3-7.5-5.3-4.3-15.4-13-22.5-19.5-7-6.5-13.9-12.3-15.5-12.9-1.5-0.6-7.2-2.4-12.7-4.1-5.5-1.6-12-3.4-14.5-3.9-2.5-0.5-9.7-1.3-16-1.8-6.3-0.5-12.2-0.6-13-0.2-0.7 0.3-5.7 5.4-11 11.2-5.2 5.8-11 13.4-12.8 16.8-1.7 3.3-3.4 6.1-3.7 6.1-0.3 0-0.3-2.1 0-4.7 0.4-2.7 1.1-6.4 1.6-8.3 0.8-2.7 0.7-4.4-0.4-7.5-0.8-2.2-1.8-4.8-2.1-5.7-0.3-1-0.2-1.8 0.4-1.8 0.5 0 1.8 1.8 2.7 4 1.4 3.1 2.1 3.7 3.1 2.7 0.7-0.7 1.2-2 1.2-2.9 0-1-1.2-5-2.8-8.8-1.5-3.9-2.3-7.3-1.9-7.8 0.5-0.4 1.5 0.2 2.4 1.3 0.8 1.1 2.5 4.1 3.9 6.8 2.3 4.6 2.4 4.7 4.4 3 1.1-1 2-2.9 2-4.3 0-1.4-0.9-5-2-8-1.1-3-2-6.5-2-7.7 0-1.3 0.7-2.5 1.5-2.8 0.9-0.3 1.8 0.4 2.4 1.8 0.4 1.2 1.9 5.4 5.6 16.4l6.8-4.2-0.8-6c-0.5-3.3-0.9-8.2-0.9-11-0.1-4.3 0.2-5 1.8-5 1.6 0 2.2 1.5 3.7 9 1 5 2.2 9.4 2.6 9.8 0.5 0.5 2.6 0.5 8.8-0.9zm-223.3 6c0.3 0 3.9 3.3 8.1 7.3 4.2 4 12.2 12.4 17.8 18.7 5.6 6.4 13.1 15.4 16.7 20 3.7 4.7 10 13.7 14.2 20 4.1 6.4 11.1 18.2 15.6 26.3 4.4 8.1 8.6 15.6 9.3 16.7 1.1 1.6 0.9 3.2-3.2 16l-11.8-10.9c-6.4-6-18.3-17.6-26.3-25.7-9.7-9.9-16-17.2-18.7-21.9-2.3-3.8-6.2-11.5-8.6-17-2.4-5.5-6-15.1-8-21.5-1.9-6.3-4-14.4-4.6-18-0.5-3.5-1-7.3-1-8.2 0-1 0.2-1.8 0.5-1.8zm274.4 5c0.3 0 1.1 0.6 1.8 1.5 0.8 0.9 1 2.7 0.7 4.3-0.3 1.5-1.5 5.1-2.5 8-1.2 3.1-2.5 5.2-3.4 5.2-0.8 0-1.5-0.9-1.5-2 0-1.1 1-5.3 2.1-9.5 1.2-4.1 2.5-7.5 2.8-7.5zm-59.6 35c0.7 0 9.1 2.6 18.7 5.8 9.6 3.3 18.4 6.4 19.5 7 1.8 1 1.6 1.2-1.8 1.2-2 0-7.2 0.7-11.5 1.5-4.2 0.8-8.8 2.4-10.2 3.4-1.4 1-3.1 3.5-3.8 5.5-0.7 2-1.8 9.9-2.5 17.6-0.8 9.9-1.6 14-2.5 14-0.7 0-2.4 1-6.4 4.5l2.6 3.3c1.4 1.8 2.6 3.8 2.6 4.5 0 0.7-0.7 3.1-1.5 5.5-1.5 4.2-1.5 4.2 1.7 7.7 1.8 1.9 4.2 3.5 5.3 3.5 1.1 0 4.4-1 7.3-2.2 2.9-1.3 5.2-2.6 5.2-3 0-0.4-3.5-0.8-15.5-0.8l3.2-3c2.4-2.2 4.3-3 7-3 2.4 0 5.1 0.9 7.5 2.5 2.1 1.4 3.8 2.2 3.8 1.8 0-0.4-1.1-2.6-2.3-4.7-1.6-3-3.3-4.4-10.7-7.1l2.5-3.5c1.4-1.9 2.5-4.3 2.5-5.2 0-1-0.5-2-1-2.3-0.6-0.2-1-3.1-1-12l6.7-0.6c5.4-0.5 8.9-1.6 26.5-10.4l2.4 3c1.3 1.7 2.7 3.9 3 5 0.3 1.1-0.2 5.4-1.1 9.5-1 4.2-3.3 13.8-5.2 21.5-1.9 7.7-4.4 15.8-5.6 17.9-1.3 2.2-3.8 4.6-6 5.7-2 1.1-6.8 2.3-10.5 2.9-3.7 0.5-11 1.4-16.2 2.1-8.9 1.1-9.7 1-12-0.8-1.4-1.1-3.4-3.3-4.5-4.9-1.1-1.6-4-8.7-6.4-15.9-2.5-7.1-4.5-14.8-4.5-17-0.1-2.2 0.6-5.5 1.4-7.3 0.8-1.8 1.9-3.2 2.5-3.2 0.5 0 1.9 0.9 3 2 1.1 1.2 2.3 2.1 2.7 2.1 0.4-0.1 1.2-2.1 1.8-4.6 0.5-2.4 1-8.4 1-13.2 0-5.8-0.4-9.2-1.2-10-0.7-0.7-3.3-1.3-5.8-1.3-2.7 0-5.5 0.7-7 1.8-2.4 1.7-2.4 1.7-1.7-0.3 0.5-1.1 4.4-7.5 8.9-14.2 4.4-6.8 8.5-12.3 9.1-12.3zm109.3 56c0.2 0 1.7 2.6 3.3 5.8 1.6 3.1 4.7 10.2 6.8 15.7 2.2 5.5 4.5 12.2 5.1 14.8 0.7 2.6 1.2 5.7 1.2 7 0 1.8-0.6 1.3-2.7-2.3-1.5-2.4-5.7-12.1-9.4-21.5-4.6-11.7-6.3-17.4-5.7-18.2 0.6-0.7 1.2-1.3 1.4-1.3zm-225.9 14c0.4 0 2.9 1.8 5.5 4 3.6 3 4.8 4.7 4.8 6.8 0 1.5-1.6 7.7-3.5 13.7-2 6.1-3.5 11.1-3.5 11.3 0 0.1 2.5-2.2 5.5-5.3 3-3 5.9-5.5 6.5-5.5 0.5 0-1 2.8-3.4 6.3-2.4 3.4-6.2 9.6-8.4 13.7-2.3 4.2-5.6 11.1-7.5 15.5-1.9 4.4-5.9 15.5-9 24.5-3 9.1-6.3 19.5-7.2 23-0.9 3.6-3.9 12.3-6.6 19.3-2.7 7-5.1 12.6-5.4 12.5-0.3-0.2 0.1-8.6 1-18.8 0.9-10.1 2.2-23.2 3.1-29 0.8-5.7 2.6-16.1 4-23 1.4-6.8 4.1-17.5 6-23.7 1.9-6.2 5.6-16.8 8.3-23.5 2.7-6.8 5.8-14.4 7-17 1.1-2.6 2.4-4.8 2.8-4.8zm41.7 57c0.6 0 5.5 1.2 10.8 2.5 5.4 1.4 12.3 3.5 15.3 4.8 4.1 1.6 5.5 2.7 5.5 4.2 0 1.1-0.7 8.3-1.5 16-0.9 7.7-1.5 17.4-1 28.9l8.2-12.4c8.1-12.3 8.3-12.6 8.3-18.7 0-3.5 0.4-6.5 1-6.8 0.5-0.2 1.1 0.8 1.2 2.3 0.1 1.5 0.2 3.5 0.2 4.5 0.1 0.9 0.3 1.7 0.6 1.7 0.3 0 1.4-0.7 2.5-1.5 1.1-0.8 2.4-1.5 3-1.5 0.6 0 0.9 3.4 0.6 8.8-0.2 7 0.1 9.8 1.8 14.2 1.1 3.1 3.7 7.5 5.8 10 2.1 2.4 6 5.4 8.8 6.7 4 1.8 6.7 2.3 13.5 2.3 6.1 0 10.9-0.7 17-2.4 4.7-1.4 17.3-6.3 28-11 10.7-4.8 19.8-8.6 20.2-8.6 0.4 0 3.7 1.9 7.3 4.3 3.5 2.3 6.4 4.6 6.5 5 0 0.4-1.3 1.5-2.8 2.4-1.5 1-7.2 5.1-12.7 9.3-5.5 4.1-13.2 10.2-17 13.5-3.8 3.3-12.6 11.4-19.4 18-6.8 6.6-19.9 20.4-29.2 30.5-9.2 10.2-22.9 25.7-30.4 34.5-7.6 8.8-18.3 22.1-23.9 29.5-5.6 7.5-13.1 17.8-16.6 23-3.5 5.3-9.9 16.3-14.1 24.5-5.3 10.3-9.1 19.5-12.3 29.5-2.5 8-5.4 18.4-8.5 31.5l0.3-12.5c0.2-7.8 1.2-16.4 2.6-23 1.2-5.7 3.7-14.9 5.6-20.2 1.9-5.4 5.8-14.8 8.7-21 2.9-6.2 8.2-16 11.7-21.8 3.4-5.7 9.9-15.6 14.4-21.9 4.4-6.3 13-17.5 19-25 6-7.5 16-19.2 22.1-26.1 6.2-6.8 18-19 26.1-27 8.2-7.9 18-17.2 21.9-20.5 3.8-3.3 10.5-9.1 14.7-13 4.3-3.8 7.6-7.1 7.3-7.2-0.3-0.2-2.2 0.6-4.3 1.6-2 1-7.5 4.3-12.2 7.4-4.7 3-12.3 8.5-17 12.2-4.7 3.8-13.5 11.2-19.5 16.6-6.1 5.3-16.7 15.5-23.5 22.6-6.9 7-16.4 17.3-21.1 22.8-4.6 5.5-10.5 12.7-13 16-2.5 3.3-8 11-12.1 17-4.1 6.1-10.6 16.4-14.3 23-3.8 6.6-9.1 16.8-11.8 22.5-2.7 5.8-6.5 14.6-8.4 19.5-1.9 5-3.7 9.3-4 9.5-0.3 0.3-0.2-2.2 0.2-5.5 0.4-3.3 1.6-10.2 2.7-15.5 1-5.2 3.3-14.2 5-20 1.7-5.7 4.4-13.6 6-17.5 1.6-3.8 5.4-11.7 8.4-17.5 3.1-5.7 7.6-13.6 10.1-17.5 2.5-3.8 8.4-12.1 13.2-18.5 4.7-6.3 14.2-17.3 21.1-24.4 6.9-7 16.8-16.4 22-20.8 5.2-4.3 13.4-10.7 18.3-14.1 4.8-3.4 8.3-6.3 7.7-6.4-0.6-0.2-5.2 1.7-10.3 4-5.1 2.4-13.5 7.2-18.7 10.8-5.8 3.9-14.4 11.3-22.1 18.9-6.9 6.9-16.4 17.6-21 23.8-4.6 6.1-8.5 11.1-8.6 11-0.1-0.2 0.5-5 1.2-10.8 0.8-5.7 3.2-26.7 5.5-46.5 2.2-19.8 4.7-41.8 5.4-49 0.8-7.1 1.2-13.2 1-13.5-0.3-0.2-1.1 0.2-1.9 1-0.8 0.9-5.2 7.8-9.8 15.5-5.1 8.7-9.2 14.5-10.8 15.2-1.3 0.7-5.4 2-9.1 3-5.1 1.4-7.3 1.6-12.3-0.3l0.3-8.9c0.2-4.9 0.9-11.9 2.8-22l1.4 9c0.7 5 1.4 9.3 1.6 9.5 0.2 0.3 4.4-2.6 18.5-13.5l-0.1-4.5c0-2.4 0.3-9.3 0.6-15.2 0.4-6.8 1.1-10.8 1.8-10.8zm136.5 5.4c0.2 0.2-0.1 7.8-0.8 16.8-0.8 9-1.9 16.8-2.5 17.5-0.6 0.6-4.6 2.3-8.9 3.7-4.4 1.5-10 2.6-13 2.6-3.5 0-6.8-0.7-10.2-2.4-2.8-1.3-6.5-4-8.3-6-2.2-2.5-3.2-4.6-3.2-6.8 0-1.8 0.5-4.8 1.2-6.7 1.2-3.2 1.5-3.3 5.3-2.7 2.2 0.3 5.1 1.4 6.5 2.4 1.4 1 4.1 4.4 6 7.5 1.9 3.1 3.7 5.5 4 5.3 0.3-0.1 3.8-5.2 7.9-11.2 4.1-6 9.2-13 11.4-15.7 2.2-2.6 4.3-4.6 4.6-4.3zm-65.7 21.8c0.6 0.2 4.4 4.6 8.6 9.8 4.4 5.4 10.1 11.1 18.7 17.1l-5.3-0.1c-3.4 0-6.8-0.8-10-2.3-2.6-1.3-6.1-4-7.7-5.9-1.7-2-3.6-5.3-4.2-7.4-0.7-2.1-1.2-5.6-1.2-7.7 0.1-2.1 0.6-3.7 1.1-3.5zm107 4.8c4 0 13.6 0.5 21.3 1 7.7 0.6 17.6 1.5 22 2.1 4.4 0.6 9.3 1.7 11 2.5 2.9 1.4 2.7 1.4-3.3 0.9-3.4-0.2-6.2-0.1-6.2 0.3 0 0.4 3.3 1.5 7.2 2.5 4 0.9 11.8 3.2 27.3 8.2l-16.5 0.3c-9.1 0.2-22.4-0.1-29.5-0.7-7.2-0.6-15.3-1.7-18-2.4-2.8-0.8-7-2.4-9.5-3.6-2.5-1.3-6.4-3.8-8.8-5.7-2.3-1.9-4.2-3.8-4.2-4.4 0-0.5 3.1-1 7.2-1zm-4.1 25c0.5 0 3.1 0.6 10.8 2.5l4 14.5c2.2 8 6 23.3 8.5 34 2.5 10.8 4.6 20.4 4.6 21.5 0 1.1-1.4 5-3.1 8.5-1.7 3.6-3.8 7.3-4.7 8.3-1.4 1.4-3.3 1.8-9.5 1.8-7-0.1-7.7-0.2-7.7-2.1 0-1.1-0.7-5.2-1.6-9.2-0.9-4-1.9-6.8-2.3-6.3-0.5 0.6-1.8 5.8-3 11.5-1.1 5.8-2.4 12.8-3.3 20.5l5.8 0.8c3.3 0.4 8.6 2 11.9 3.5 3.3 1.6 8 4.9 10.5 7.3 2.5 2.4 6.5 7.4 9 10.9 2.5 3.6 8.2 12.4 12.6 19.5 4.5 7.2 12.4 20.7 17.7 30 5.2 9.4 10.4 18.8 11.5 21 1.2 2.2 2.1 3.7 2.1 3.3 0.1-0.4-1.3-6.3-3-13-1.7-6.8-6.9-25.5-11.6-41.8-4.6-16.2-10.4-37.6-12.8-47.5-2.4-9.9-5.8-26.1-7.5-36-1.7-9.9-4-22.7-5.1-28.5-1-5.7-3-15-4.3-20.5-1.4-5.5-2.2-10.2-2-10.5 0.3-0.2 9 8.1 19.5 18.5 12.3 12.3 18.8 18.1 18.4 16.5-0.4-1.3-2-4.9-3.5-8-1.6-3-5.5-9.5-8.9-14.5-3.3-4.9-6.9-10.2-10.1-14.5l3.2 0.5c1.8 0.3 9.1 1 16.3 1.6 7.1 0.5 14.5 1.3 16.4 1.7 2.7 0.6 5 2.6 10.9 9.7 4.2 5 10.6 13.1 14.2 18 3.7 5 8 10.9 9.6 13.3 1.6 2.3 2.5 4.5 2.1 4.7-0.4 0.3-2.4-0.7-4.5-2.3-2-1.5-8.1-5.8-13.5-9.5-5.3-3.7-9.9-6.6-10.2-6.4-0.2 0.1 1.4 5.9 3.6 12.7 3.1 9.8 4.8 13.4 7.6 16.5 2 2.2 8.1 8.7 13.7 14.3 5.5 5.7 10.2 10.2 10.4 10 0.1-0.1-1.9-6.2-4.5-13.5-2.7-7.3-4.5-13.2-4.1-13.2 0.4-0.1 2.7 1.8 5 4.2 2.8 2.7 6.9 9.3 11.5 18.2 4 7.7 7.3 14.7 7.3 15.5 0 0.9-2.9 7.6-6.6 15-3.6 7.5-8.9 18.5-11.6 24.5-2.8 6.1-5.7 12.6-8 18l-7.8-19.5c-4.2-10.7-10.2-25.1-13.3-32-3.2-6.8-8.1-16.7-11.1-22-3-5.2-8.1-13-11.3-17.4-3.2-4.3-10.3-12.1-15.8-17.2-5.5-5.2-10.1-9.2-10.3-8.9-0.1 0.3 0.3 1.5 0.9 2.8 0.7 1.2 2.5 5.8 4.1 10.2 1.7 4.4 4.5 13 6.4 19 1.9 6.1 5.7 19.8 8.4 30.5 2.7 10.8 6.1 24.9 7.5 31.5 1.4 6.6 3.9 19.5 5.5 28.5 1.6 9.1 4.5 26.9 6.5 39.5 2 12.7 4.5 29.1 5.5 36.5 1.1 7.5 1.9 14.1 2 14.8 0 0.9-2.1 1.2-14.5 1.2l0.7-17.5c0.5-11.1 0.4-19.4-0.2-22.7-0.6-3.1-3.5-9.5-6.7-15.3-3.1-5.5-8.4-14.5-11.7-20-3.3-5.5-9.9-15.8-14.7-23-4.8-7.1-11.1-15.2-14.1-18-3.4-3.3-8.9-6.9-15.3-10-5.5-2.7-13.7-7.7-18.3-11.2-4.5-3.4-9-6.3-10-6.3-1 0-2.6 1.6-3.8 3.8-1.8 3.1-2.3 6.1-2.9 17.7-0.3 7.7-1.3 19.4-2.1 26-0.8 6.6-2.2 15.6-3 20-0.9 4.4-2.7 12.1-4 17-1.3 5-4 13.8-6 19.5-2 5.8-4.5 12.3-5.7 14.5-1.1 2.2-4.4 8-7.4 12.8-2.9 4.8-5.3 9.1-5.3 9.5 0 0.4 3.7 0.4 8.2 0 5.8-0.5 9.4-1.4 11.8-2.9 1.9-1.2 10-7.4 18-13.8 7.9-6.3 20.3-16.6 27.5-22.8 8.5-7.3 13.2-10.8 13.7-10 0.3 0.7 2 9.3 3.6 19.2 1.7 9.9 3.4 21.5 4.7 33.5h-50.8c-33.1 0-50.7-0.3-50.7-1 0-0.5 2.3-12.1 5-25.7 2.8-13.6 7.3-34.7 10-46.8 2.7-12.1 8-34.6 11.9-50 3.8-15.4 10.8-42.6 15.5-60.5 4.7-17.8 8.3-32.7 8-33-0.2-0.2-2.3 1.3-4.5 3.5-2.2 2.2-6.8 8.1-10.1 13-3.3 5-7.7 12.4-9.8 16.5-2.1 4.2-6 12.7-8.8 19-2.8 6.4-7.1 16.5-9.5 22.5-2.5 6.1-8.1 20.7-12.5 32.5-4.4 11.9-12.1 33.2-17 47.5-5 14.3-11.7 34.2-20.7 62.5h-21.3c-18.2 0-21.2-0.2-21.2-1.5 0-0.8 3-11 6.6-22.7 3.6-11.7 9-28 12-36.3 3-8.2 7.8-20.4 10.6-27 2.7-6.6 6.9-15.8 9.3-20.5 2.3-4.6 6.6-12.5 9.5-17.5 2.9-4.9 8.5-13.7 12.3-19.5 3.9-5.7 10.6-15.4 15-21.5 4.4-6 15-19.7 23.6-30.5 8.5-10.7 21.2-25.1 28.1-31.9 6.8-6.9 15.8-15.1 19.8-18.3 4-3.2 7.8-5.8 8.3-5.8zm219.6 13.2c17.3-0.1 22.3 0.1 22.3 1.1 0 0.7-2.7 6.6-5.9 13.2-3.2 6.6-6.5 12.9-7.2 13.9-1.4 1.8-1.7 1.7-7.4-1.3-5-2.6-7.1-3.1-12.5-3.1-3.6 0.1-7.3 0.6-8.2 1.3-0.9 0.7-2.1 2.5-2.7 4-0.6 1.5-1.1 4.1-1.1 5.7 0 2.5-0.5 3.1-2.8 3.7-1.5 0.3-4.4 1.4-6.5 2.5-2 1-4.6 3.1-5.7 4.6-1.2 1.5-2.1 4.2-2 6 0 1.8 0.5 4 1.1 5 0.9 1.4 0.5 2.4-2.5 5.5-2.9 3-3.6 4.5-3.6 7.7 0 2.2 0.4 4.9 1 6 0.7 1.5 0.6 2.7-0.7 4.8-1.1 1.9-1.4 3.8-1 6.5 0.4 2.1 2.1 5.3 3.9 7.3 1.8 2 5 4.6 7.1 5.8 2 1.2 3.7 2.8 3.7 3.6 0 0.9-3.1 8.5-7 17-3.9 8.6-12.4 26.2-30.5 63.1l-12.8-0.1c-7 0-12.7-0.2-12.7-0.5 0-0.2 1.1-3.3 2.4-6.7 1.4-3.5 5.6-14.8 9.4-25.3 3.8-10.4 11.5-32 17.1-48 5.5-15.9 11.8-33.5 17.8-49l-3.3-0.2c-2.7-0.2-3.3-0.6-2.9-2 0.3-1 5.8-12.9 24-51.1l3.5-0.4c1.9-0.3 13.5-0.5 25.7-0.6zm-7.7 31.2c3 0.3 7.7 1.7 10.5 2.9 2.9 1.4 6.5 4.2 8.6 6.8 2 2.4 4.9 6.9 6.5 9.9 1.6 3.1 3.4 6.8 4.1 8.3 0.8 1.6 0.9 2.7 0.3 2.7-0.6 0-4.6-3.3-9-7.5-6.2-5.8-9.4-8-14.2-9.7-4.3-1.6-7.5-3.6-10.5-6.8-3.5-3.6-4.1-4.7-3.1-5.8 0.9-1 2.8-1.2 6.8-0.8zm-15.5 14.6c1.6 0 7.3 2 12.5 4.4 5.2 2.4 10.5 5.4 11.7 6.8 1.2 1.3 5.1 7.7 8.7 14.3 3.6 6.6 6.3 12.1 6 12.3-0.2 0.1-5.3-4.7-11.2-10.7-9.1-9.2-11.6-11.1-16.2-12.7-3-1-8.7-3.5-12.5-5.4-3.9-1.9-7-4.2-7-5 0-0.8 1.1-2 2.5-2.7 1.4-0.7 3.8-1.3 5.5-1.3zm-5.3 20.1c2.6-0.1 6.9 0.5 9.5 1.1 3.5 0.9 6 2.4 9.2 5.8 2.4 2.5 6.5 7.9 9.2 12 2.7 4.2 4.6 7.6 4.4 7.8-0.3 0.1-4.2-2.9-8.8-6.7-4.5-3.9-10.5-8.1-13.2-9.4-2.8-1.3-8.1-3.2-11.8-4.3-3.7-1-6.8-2.4-6.9-3.1-0.1-0.6 0.7-1.6 1.8-2.2 1-0.6 4-1 6.6-1zm-5.2 16.9c1.1 0 3.7 0.7 5.7 1.6 2.1 0.9 5.5 3 7.7 4.8 2.1 1.7 5.2 5 6.7 7.4 1.6 2.3 2.7 4.2 2.4 4.2-0.3 0-1.8-0.8-3.3-1.8-1.5-1.1-6.9-4-12-6.5-5.1-2.6-9.4-5.1-9.7-5.7-0.3-0.5-0.3-1.6 0-2.5 0.2-0.8 1.3-1.5 2.5-1.5zm-184.9 37.5l3.2 3.6c1.7 2 5.1 7.3 7.4 11.8 3.2 6 4.3 9.3 4.3 12.6 0 3.4-0.4 4.5-1.5 4.5-0.8 0-3.9-1.5-6.8-3.4-4.8-3.1-5.3-3.8-6-8.2-0.4-2.7-0.7-8.5-0.7-12.9zm121.9 73.5h10c5.5 0 10 0.3 10 0.5 0 0.3-4.3 6.9-9.6 14.8-5.3 7.8-9.8 14.5-10 14.7-0.2 0.3-0.4-6.3-0.4-14.7z"/>
		<path id="Path 3" class="s1" d="m215.1 166.4c-1.9 0.7-4 2.1-4.7 3.2-0.7 1-2 3.6-2.8 5.6-0.9 2.1-1.6 5.9-1.6 8.5 0 3.1 0.8 6.2 2.3 8.8 1.2 2.1 3.8 5 5.7 6.3 1.9 1.3 4.6 2.6 6 2.9 1.4 0.3 4.3 0 6.5-0.7 2.2-0.7 5.3-2.7 7-4.4 1.7-1.8 3.6-5.2 4.3-7.6 0.8-2.5 1.1-6.1 0.8-8-0.4-1.9-1.9-5.4-3.4-7.7-1.5-2.4-4.3-5.2-6.2-6.2-1.9-1.1-5.1-2-7-2-1.9 0-5 0.6-6.9 1.3zm46.9 4.3c-2.1 2.1-4.3 5.6-5 7.8-0.8 2.5-1 5.8-0.5 9 0.6 4 1.5 5.8 4.9 9.2 3.7 3.8 4.6 4.2 8.9 4.3 2.6 0 5.9-0.6 7.3-1.3 1.4-0.6 3.7-3 5.1-5.2 1.7-2.6 2.8-5.8 3.1-9 0.2-3.8-0.2-6.1-2-9.5-1.3-2.5-3.9-5.5-5.8-6.8-2.3-1.5-5-2.2-7.9-2.2-3.7 0-4.9 0.6-8.1 3.7z"/>
	</g>
</svg>